<svg width="107" height="17" viewBox="0 0 107 17" fill="none" xmlns="http://www.w3.org/2000/svg">
<path d="M61.696 16.3403C60.4522 16.3403 59.3108 16.2312 58.2719 16.013C57.233 15.7804 56.2892 15.475 55.4405 15.0969C54.6064 14.7042 53.8455 14.2607 53.1577 13.7662L54.8698 10.7996C56.0697 11.643 57.2769 12.2611 58.4914 12.6537C59.7059 13.0318 60.8692 13.2209 61.9813 13.2209C62.4642 13.2209 62.969 13.1773 63.4958 13.09C64.0226 12.9882 64.4616 12.821 64.8127 12.5883C65.1786 12.3411 65.3615 12.0066 65.3615 11.5849C65.3615 11.3376 65.2737 11.1341 65.0981 10.9741C64.9371 10.7996 64.7103 10.6614 64.4177 10.5596C64.125 10.4578 63.7811 10.3778 63.3861 10.3197C63.0056 10.247 62.5886 10.1961 62.1349 10.167C61.696 10.1234 61.2497 10.0797 60.7961 10.0361C59.7718 9.9343 58.8426 9.76706 58.0085 9.53438C57.1744 9.3017 56.4574 9.00358 55.8575 8.64002C55.2722 8.26192 54.8186 7.80383 54.4966 7.26576C54.1747 6.72769 54.0138 6.10963 54.0138 5.4116C54.0138 4.62631 54.204 3.92827 54.5844 3.31749C54.9795 2.7067 55.5283 2.19772 56.2306 1.79053C56.933 1.3688 57.7378 1.04886 58.645 0.830726C59.5669 0.61259 60.5546 0.503521 61.6082 0.503521C62.7056 0.503521 63.6933 0.605318 64.5713 0.808913C65.4639 0.997965 66.2468 1.25973 66.9199 1.59421C67.6076 1.92868 68.1783 2.29224 68.6319 2.68489L66.8321 5.2589C66.3785 4.92443 65.8517 4.64085 65.2517 4.40817C64.6664 4.16095 64.0445 3.9719 63.3861 3.84101C62.7422 3.71013 62.0984 3.64469 61.4545 3.64469C60.796 3.64469 60.2034 3.70286 59.6766 3.8192C59.1645 3.921 58.7548 4.08096 58.4475 4.2991C58.1548 4.50269 58.0085 4.77173 58.0085 5.10621C58.0085 5.4116 58.1329 5.66609 58.3816 5.86968C58.645 6.05874 58.9816 6.21143 59.3913 6.32777C59.801 6.42957 60.2546 6.50955 60.7522 6.56772C61.2497 6.62589 61.7325 6.68406 62.2008 6.74223C63.0788 6.82949 63.9421 6.94583 64.7908 7.09125C65.6395 7.22213 66.4004 7.44027 67.0735 7.74566C67.7612 8.03651 68.31 8.45824 68.7197 9.01085C69.1294 9.54892 69.3343 10.2833 69.3343 11.214C69.3343 12.2902 69.005 13.2136 68.3466 13.9844C67.6881 14.7406 66.7809 15.3223 65.6249 15.7295C64.4835 16.1367 63.1739 16.3403 61.696 16.3403Z" fill="#122743"/>
<path d="M94.0444 16.2993V12.9809H98.1708V4.12459H94.0444L93.9713 0.925187H106.051V4.12459H101.902V12.9809H106.051V16.2993H94.0444Z" fill="#122743"/>
<path d="M0.115723 13.7932L0.157149 16.2993H15.6313L15.5899 12.9643H5.92896L15.3484 3.43173V0.925187H1.61423V4.43515H9.38125L0.115723 13.7932Z" fill="#122743"/>
<path d="M18.7409 16.2993V0.925187H32.5249V4.01552H22.3625V6.8513H31.5372V9.86159H22.3625V13.0952H32.7444V16.2993H18.7409Z" fill="#122743"/>
<path d="M84.5589 16.253C82.9201 16.253 81.4934 15.9331 80.2788 15.2932C79.0643 14.6533 78.1205 13.7735 77.4474 12.6537C76.7743 11.534 76.4377 10.167 76.4377 8.72728V0.925187H80.213V8.72728C80.213 14.0002 89.0146 14.0002 89.0146 8.72728V0.925187H92.6582V8.72728C92.6582 10.167 92.3216 11.534 91.6485 12.6537C90.9754 13.7735 90.0316 14.6533 88.8171 15.2932C87.6025 15.9331 86.1832 16.253 84.5589 16.253Z" fill="#122743"/>
<path d="M35.4503 8.72728V0.925187H39.2256V8.72728C39.2256 14.1744 48.0272 14.1744 48.0272 8.72728V0.925187H51.6707V8.72728C51.6707 18.8844 35.4503 18.8163 35.4503 8.72728Z" fill="#122743"/>
</svg>
